<svg width="704" height="845" viewBox="0 0 704 845" fill="none" xmlns="http://www.w3.org/2000/svg">
<g clip-path="url(#clip0_10_20)">
<path d="M525.384 550.227C526.501 550.312 527.449 548.887 527.5 547.044C527.528 546.06 527.29 545.106 526.852 544.438L526.713 543.528L526.768 543.309C527.939 538.747 531.132 536.614 533.898 538.546C535.213 539.464 536.256 541.196 536.802 543.371C538.443 549.889 540.533 556.418 541.047 563.31C541.274 566.356 541.178 569.444 540.765 572.437C544.619 558.571 546.621 543.5 546.634 528.247C546.635 524.419 546.506 520.595 546.248 516.791C546.034 513.672 545.738 510.576 545.36 507.502C543.294 490.823 538.858 475.19 532.417 461.886C529.299 459.081 526.778 454.768 525.193 449.527C524.619 447.643 524.213 445.632 523.988 443.556C524.34 443.632 524.697 443.68 525.049 443.718C525.158 443.727 525.274 443.737 525.383 443.747L525.424 443.75C526.532 443.832 527.47 442.418 527.519 440.592C527.541 439.782 527.382 438.987 527.073 438.358C526.921 438.05 526.769 437.742 526.617 437.434C526.386 436.958 526.15 436.493 525.919 436.017C525.893 435.972 525.868 435.924 525.844 435.875C525.579 435.333 525.314 434.8 525.049 434.258C525.533 433.019 526.184 431.981 526.951 431.226C529.609 428.659 533.276 430.436 535.196 434.401C537.017 438.588 537.611 443.897 536.816 448.88C536.158 453.095 535.07 457.095 533.599 460.707C533.743 461.012 533.893 461.306 534.037 461.611C536.672 467.198 538.968 473.197 540.893 479.523C540.425 472.436 540.984 465.267 542.523 458.606C544.084 452.399 547.009 447.17 549.584 441.804C551.487 437.777 555.009 437.057 557.451 440.195C558.622 441.7 559.384 443.912 559.567 446.342L559.583 446.58C559.2 446.936 558.826 447.313 558.459 447.713C557.197 449.103 556.858 451.917 557.701 453.998C558.129 455.054 558.806 455.765 559.567 455.959L559.623 455.973C559.487 458.247 559.246 460.5 558.902 462.714C556.891 475.206 551.811 485.749 544.887 491.806C544.662 491.996 544.443 492.186 544.218 492.367C546.152 501.405 547.366 510.82 547.827 520.375C548.089 526.012 548.073 531.675 547.781 537.308L547.798 537.108C548.536 530.844 550.563 525.193 553.535 521.107C557.949 515.127 564.186 512.925 568.949 508.118C570.414 506.566 572.365 507.268 573.306 509.684C573.709 510.72 573.877 511.958 573.779 513.177L573.759 513.387C573.049 513.864 572.358 514.413 571.69 515.032C571.307 515.388 570.933 515.766 570.566 516.165C569.304 517.556 568.965 520.369 569.808 522.45C570.236 523.506 570.913 524.217 571.674 524.411L571.73 524.425C571.77 524.435 571.805 524.444 571.845 524.454C570.632 529.23 568.93 533.626 566.812 537.45C561.526 546.805 554.134 552.153 546.38 552.234H546.374C545.333 559.697 543.824 566.962 541.872 573.911H525.787C525.729 573.616 525.677 573.312 525.625 573.017C527.114 573.171 528.609 573.024 530.076 572.579C528.883 570.165 527.689 567.731 526.496 565.316C526.469 565.271 526.444 565.223 526.421 565.173C525.815 563.937 525.204 562.711 524.599 561.475L524.599 561.473C524.566 557.685 524.83 553.905 525.383 550.228L525.384 550.227Z" fill="#F2F2F2"/>
<path d="M476.723 306.883C476.723 321.484 481.153 336.342 490.007 336.342C498.861 336.342 511.078 325.767 508.329 303.106C506.593 288.788 501.61 280.445 492.755 280.445C483.901 280.445 476.723 292.281 476.723 306.882V306.883V306.883Z" fill="#2F2E41"/>
<path d="M513.866 515.497C512.043 512.163 512.204 507.023 514.226 504.017C514.442 503.697 514.674 503.408 514.92 503.155L511.044 474.985L519.564 480.271L521.938 506.211C523.229 510.192 522.318 515.144 519.904 517.272C517.885 519.052 515.388 518.319 513.866 515.497V515.497Z" fill="#A0616A"/>
<path d="M495.782 415.649L501.728 416.647C501.728 416.647 500.173 431.174 502.605 434.446C505.037 437.718 504.057 437.702 504.043 440.127C504.193 443.648 505.243 446.897 506.932 449.065C508.879 451.521 512.927 495.26 512.927 495.26L521.75 495.4C521.487 491.638 521.509 487.836 521.816 484.083C522.339 478.433 524.983 464.2 524.017 461.76C523.051 459.319 523.559 454.832 523.587 449.982C523.616 445.132 519.408 450.491 519.455 442.408C519.502 434.324 514.106 383.604 514.639 376.337C515.171 369.07 509.817 362.518 509.817 362.518L504.915 362.441L495.782 415.649V415.649Z" fill="#E6E6E6"/>
<path d="M432.656 347.435C432.095 351.587 433.682 355.702 436.2 356.626C436.468 356.724 436.741 356.784 437.016 356.803L441.786 383.017L447.318 372.105L441.94 348.885C441.879 344.609 439.727 341.226 437.134 341.327C434.965 341.412 433.113 343.937 432.656 347.435Z" fill="#A0616A"/>
<path d="M483.018 355.973C483.018 355.973 471.486 348.843 465.233 387.891L456.934 402.066L449.961 381.288L450.883 376.36L445.494 356.213L436.255 364.957L438.529 378.789L438.145 385.626L440.353 389.879L443.967 411.859L446.228 419.04C446.228 419.04 449.079 428.235 454.056 429.749C455.383 430.159 456.741 430.222 458.08 429.937C461.263 429.116 464.214 426.687 466.525 422.984C472.679 413.935 478.499 404.286 483.953 394.09L483.018 355.973H483.018Z" fill="#E6E6E6"/>
<path d="M498.486 421.359L499.302 427.769L499.995 451.415L472.129 445.193L469.989 417.812L472.946 409.798L498.486 421.359Z" fill="#A0616A"/>
<path d="M489.446 335.96C496.73 335.96 502.635 326.223 502.635 314.211C502.635 302.2 496.73 292.462 489.446 292.462C482.163 292.462 476.258 302.2 476.258 314.211C476.258 326.223 482.163 335.96 489.446 335.96Z" fill="#A0616A"/>
<path d="M511.544 365.068C509.368 356.602 504.864 350.368 499.43 348.301L499.381 348.285L496.769 342.488L486.174 344.24L484.238 350.79L479.214 355.719H479.204L479.194 355.735L476.563 358.322L467.835 375.171L467.825 375.188C465.235 378.039 463.477 382.533 462.969 387.599C462.838 389.046 462.794 390.51 462.84 391.971C463.128 400.928 466.524 408.902 466.991 409.967L468.133 420.561L468.361 422.739L470.416 423.23L499.371 430.058L500.175 430.254L500.413 430.304L501.247 426.75V426.718L509.32 391.889L512.944 376.35C512.954 372.471 512.477 368.63 511.544 365.068Z" fill="#E6E6E6"/>
<path d="M503.249 319.913C503.129 319.882 503.01 319.84 502.89 319.809C500.833 319.207 498.776 318.616 496.725 318.004L496.536 310.337L494.051 317.205C488.383 320.307 483.079 318.554 478.09 314.684C476.445 313.396 474.848 311.944 473.309 310.337C472.236 299.538 474.943 291.027 481.896 289.941C482.112 289.907 482.268 289.609 482.456 289.453L482.463 289.443V289.443C482.783 289.194 483.111 288.955 483.438 288.737C488.665 285.368 494.602 287.266 498.688 293.613C502.814 300.537 504.532 310.438 503.249 319.913V319.913Z" fill="#2F2E41"/>
<path d="M516.241 495.31C515.657 488.885 514.7 482.568 513.381 476.446V476.43C512.277 471.254 510.902 466.246 509.27 461.464C509.265 461.464 509.26 461.457 509.26 461.448V461.448C506.911 454.239 503.847 447.731 500.195 442.191L499.807 441.52H499.708L471.747 440.39H471.459L471.141 440.374C471.141 440.374 471.022 440.947 470.794 442.028C470.785 442.095 470.771 442.161 470.754 442.224C470.674 442.65 470.575 443.141 470.456 443.681C470.386 444.042 470.307 444.418 470.228 444.828C470.138 445.27 470.039 445.728 469.94 446.219C469.165 450.035 468.033 455.569 466.643 462.43C466.435 463.478 466.216 464.559 465.988 465.688C460.685 492.002 452.156 535.001 444.709 575.756H471.121C473.683 563.541 476.404 546.119 476.404 546.119C477.466 544.039 477.407 538.39 477.407 538.39L485.708 524.014L491.685 575.756H516.767L516.956 518.168V517.677C517.151 510.201 516.912 502.711 516.241 495.31V495.31Z" fill="#CCCCCC"/>
<path d="M498.196 288.902V288.921C498.194 290.059 498.282 291.193 498.458 292.294C498.486 292.487 498.519 292.689 498.558 292.882V292.891C499.316 296.877 501.162 300.047 503.547 301.458C503.719 301.568 503.898 301.66 504.076 301.743C504.452 301.922 504.836 302.051 505.224 302.129C505.573 302.21 505.925 302.25 506.278 302.248C506.553 302.25 506.828 302.229 507.103 302.184C507.744 302.077 508.375 301.839 508.981 301.476C509.076 301.431 509.169 301.375 509.26 301.311C509.305 301.284 509.35 301.253 509.393 301.219C513.515 298.374 515.457 290.558 513.732 283.762C513.68 283.558 513.626 283.357 513.568 283.158L513.562 283.149C513.166 281.781 512.629 280.537 511.974 279.472C510.514 277.073 509.87 271.061 507.652 271.061C507.546 271.058 507.44 271.064 507.334 271.08C505.846 271.162 503.095 276.458 501.925 277.708C501.055 278.613 500.302 279.79 499.706 281.173C499.084 282.595 498.641 284.207 498.402 285.915C498.265 286.895 498.196 287.897 498.196 288.902H498.196Z" fill="#2F2E41"/>
<path d="M508.07 284.262C509.325 286.671 511.29 287.608 513.063 288.862C519.415 293.457 523.981 302.927 525.266 314.167C525.756 318.676 525.692 323.345 526.466 327.741C527.236 332.137 529.141 336.45 531.876 337.213C533.726 337.734 535.581 336.556 537.322 335.393C538.279 334.758 539.237 334.121 540.194 333.482C539.196 329.35 538.199 325.218 537.203 321.086C538.803 324.986 540.664 328.576 542.75 331.79C546.181 329.508 549.615 327.227 553.052 324.946C544.596 324.999 546.039 311.463 544.147 297.881C543.107 290.418 534.253 285.365 532.517 278.264C529.805 267.132 522.135 261.733 515.384 266.204C512.475 268.131 510.078 271.705 508.624 276.285C506.888 277.426 506.838 281.882 508.07 284.262V284.262Z" fill="#2F2E41"/>
<path d="M472.155 443.699C468.206 445.398 465.01 450.172 463.596 456.485C463.096 458.269 463.109 460.329 463.632 462.095C464.041 463.356 464.951 463.926 465.765 463.429C466.581 462.703 467.233 461.559 467.62 460.169C468.189 458.386 468.678 456.536 469.084 454.635C469.747 451.766 471.162 446.977 469.142 444.734C467.442 442.848 465.192 443.581 463.28 443.451C461.213 443.312 458.917 442.007 458.182 438.475C457.469 435.04 459.142 431.809 460.947 430.503C463.149 428.997 465.662 429.392 467.653 431.556C469.59 433.771 470.974 437.072 471.546 440.844C471.635 441.453 471.407 442.065 471.037 442.211C470.686 442.349 470.329 442.015 470.221 441.446C469.714 437.947 468.378 434.928 466.511 433.066C464.657 431.301 462.352 431.45 460.587 433.448C459.66 434.398 459.23 436.249 459.533 437.977C459.999 439.511 460.875 440.594 461.899 440.9C464.079 441.769 466.359 440.644 468.533 441.792C470.555 442.647 471.845 445.913 471.5 449.31C471.274 451.348 470.908 453.336 470.409 455.238C469.984 457.192 469.489 459.103 468.924 460.958C468.061 463.647 466.505 466.558 464.452 465.769C462.112 464.871 461.557 460.366 462.058 457.052C463.415 449.407 467.112 443.504 471.79 441.514C472.16 441.369 472.53 441.745 472.619 442.354C472.702 442.934 472.5 443.521 472.155 443.699V443.699Z" fill="#CCCCCC"/>
<path d="M575.46 577.394H412.617C408.78 577.386 405.671 572.259 405.666 565.932V200.785C405.67 194.458 408.78 189.33 412.617 189.323H575.46C579.297 189.33 582.407 194.458 582.411 200.785V565.932C582.406 572.259 579.297 577.386 575.46 577.394ZM412.617 192.598C409.876 192.603 407.655 196.266 407.652 200.785V565.932C407.655 570.451 409.876 574.114 412.617 574.119H575.46C578.201 574.114 580.422 570.451 580.425 565.932V200.785C580.422 196.266 578.201 192.603 575.46 192.598H412.617Z" fill="#3F3D56"/>
<path d="M601.339 55.8355H139.327C138.337 55.8006 137.551 54.4478 137.572 52.8141C137.592 51.2295 138.366 49.9531 139.327 49.9192H601.339C602.33 49.9541 603.116 51.3068 603.095 52.9406C603.074 54.5251 602.3 55.8016 601.339 55.8355Z" fill="#CACACA"/>
<path d="M691.092 407.101H638.466C631.337 407.101 625.557 397.571 625.557 385.815C625.557 374.058 631.337 364.528 638.466 364.528H691.092C698.221 364.528 704 374.058 704 385.815C704 397.571 698.221 407.101 691.092 407.101Z" fill="#5C5DF2"/>
<path d="M313.751 496.192C312.634 496.277 311.686 494.852 311.635 493.009C311.607 492.025 311.844 491.071 312.283 490.402L312.422 489.492L312.367 489.274C311.196 484.712 308.003 482.579 305.237 484.511C303.922 485.428 302.879 487.161 302.333 489.335C300.691 495.854 298.602 502.383 298.087 509.275C297.861 512.321 297.956 515.409 298.37 518.402C294.515 504.536 292.514 489.465 292.501 474.212C292.5 470.384 292.629 466.56 292.887 462.756C293.1 459.637 293.396 456.541 293.775 453.467C295.841 436.788 300.277 421.155 306.718 407.851C309.836 405.046 312.357 400.733 313.942 395.492C314.516 393.608 314.922 391.597 315.147 389.521C314.795 389.597 314.438 389.645 314.086 389.683C313.976 389.692 313.861 389.702 313.752 389.711L313.71 389.714C312.603 389.796 311.665 388.383 311.615 386.557C311.593 385.747 311.752 384.952 312.062 384.323C312.214 384.014 312.366 383.706 312.518 383.399C312.749 382.923 312.985 382.457 313.215 381.982C313.242 381.937 313.267 381.889 313.29 381.839C313.556 381.297 313.821 380.765 314.086 380.223C313.602 378.984 312.951 377.946 312.183 377.19C309.526 374.623 305.859 376.401 303.939 380.366C302.118 384.553 301.524 389.862 302.319 394.845C302.977 399.06 304.065 403.06 305.536 406.672C305.392 406.977 305.242 407.271 305.098 407.576C302.463 413.163 300.167 419.162 298.242 425.487C298.71 418.401 298.151 411.232 296.612 404.571C295.051 398.364 292.126 393.135 289.551 387.769C287.648 383.742 284.126 383.022 281.684 386.159C280.513 387.665 279.751 389.876 279.568 392.307L279.552 392.545C279.935 392.9 280.309 393.278 280.676 393.678C281.937 395.068 282.277 397.882 281.434 399.962C281.006 401.019 280.329 401.73 279.568 401.923L279.512 401.938C279.648 404.211 279.889 406.465 280.232 408.678C282.244 421.171 287.324 431.714 294.248 437.771C294.473 437.961 294.692 438.151 294.917 438.331C292.983 447.37 291.769 456.785 291.308 466.34C291.046 471.977 291.062 477.639 291.354 483.272L291.336 483.073C290.598 476.809 288.572 471.157 285.6 467.072C281.185 461.092 274.949 458.89 270.186 454.083C268.72 452.531 266.77 453.232 265.829 455.649C265.425 456.685 265.258 457.922 265.356 459.142L265.375 459.352C266.085 459.829 266.777 460.378 267.445 460.997C267.828 461.353 268.202 461.73 268.569 462.13C269.83 463.52 270.17 466.334 269.327 468.415C268.899 469.471 268.222 470.182 267.461 470.376L267.405 470.39C267.364 470.399 267.33 470.409 267.289 470.418C268.503 475.195 270.205 479.591 272.322 483.415C277.609 492.77 285 498.118 292.755 498.199H292.76C293.802 505.662 295.311 512.926 297.263 519.875H313.348C313.406 519.58 313.458 519.276 313.51 518.981C312.021 519.136 310.526 518.989 309.059 518.544C310.252 516.129 311.446 513.695 312.639 511.281C312.666 511.235 312.691 511.188 312.714 511.138C313.319 509.902 313.93 508.676 314.536 507.44L314.536 507.438C314.568 503.65 314.305 499.87 313.752 496.193L313.751 496.192H313.751Z" fill="#F2F2F2"/>
<g opacity="0.38">
<path d="M283.209 457.657C280.724 454.302 280.359 448.261 282.393 444.163C282.61 443.726 282.85 443.321 283.11 442.954L269.965 386.284L280.47 389.953L291.624 444.462C293.558 448.727 293.029 454.769 290.443 457.957C288.279 460.625 285.289 460.501 283.209 457.657V457.657Z" fill="#FFB8B8"/>
<path d="M288.617 395.59L276.821 314.636L271.747 291.089C271.742 291.08 271.738 291.069 271.737 291.057C270.911 287.21 269.183 284.072 266.941 282.345C264.698 280.574 262.116 280.374 259.782 281.789C259.583 281.903 259.387 282.034 259.196 282.182C258.789 282.489 258.395 282.839 258.015 283.23C255.825 285.506 254.305 289.175 253.815 293.365L252.921 301.094L252.544 304.385L266.475 384.685V384.718L271.32 412.685L273.564 425.588V425.604L276.166 440.619L276.225 440.93L282.471 440.243H282.481L283.424 440.128L290.574 439.342L291.606 439.228L288.617 395.59V395.59Z" fill="#2F2E41"/>
<path d="M240.727 260.428L267.002 348.054L283.624 441.229C248.605 452.49 204.665 476.579 201.502 442.031C203.451 345.708 209.591 314.983 222.265 273.225L240.727 260.428Z" fill="#2F2E41"/>
<path d="M275.858 520.084H254.281L245.533 471.338L239.377 519.462C239.357 519.674 239.347 519.871 239.327 520.084H216.331C217.076 505.02 218.436 478.821 219.081 475.104C219.995 469.831 219.081 469.831 217.254 466.818C216.847 466.147 216.708 463.462 216.748 459.712C216.857 446.793 218.992 421.2 218.992 421.2L221.524 413.471L222.398 410.785L267.497 408.166L267.885 408.149L268.719 414.142L269.742 421.527L271.539 434.479L273.197 444.811L273.286 445.335V448.397C273.004 449.464 272.875 450.624 272.909 451.787C272.909 452.835 274.339 485.485 275.858 520.084Z" fill="#2F2E41"/>
<path d="M237.648 273.423L240.744 261.206L250.328 261.484L260.321 284.794L270.809 357.533C270.809 357.533 274.577 410.668 270.809 413.473C267.042 416.278 221.425 414.786 221.425 414.786C223.537 386.09 225.111 356.899 226.77 339.461C232.253 281.828 234.841 293.956 237.648 273.423Z" fill="#5C5DF2"/>
<path d="M250.328 261.484C250.328 261.484 270.971 281.162 271.779 291.435C272.586 301.707 275.29 427.435 275.29 427.435L267.989 419.656L265.994 373.832C267.386 333.115 263.99 302.765 257.085 280.014L250.328 261.484H250.328Z" fill="#2F2E41"/>
<path d="M259.342 236.275C260.587 223.626 255.378 211.709 247.708 209.657C240.038 207.604 232.811 216.194 231.567 228.842C230.322 241.49 235.531 253.408 243.201 255.46C250.871 257.513 258.098 248.923 259.342 236.275Z" fill="#FFB8B8"/>
<path d="M228.119 231.181C228.747 235.881 229.88 240.359 231.465 244.402C231.886 245.78 232.514 246.957 233.29 247.819C234.101 248.677 235.168 248.457 235.825 247.296L236.168 246.837C235.496 246.155 234.897 245.297 234.393 244.297C233.887 243.279 233.71 241.921 233.918 240.649C234.17 239.365 234.993 238.641 235.781 239.009C236.605 239.542 237.106 241.506 237.968 241.203C238.665 240.952 238.81 239.437 238.81 238.246C238.785 232.017 240.61 223.164 242.024 223.436C243.452 223.565 244.881 223.249 246.238 222.506C247.597 221.761 249.031 221.46 250.459 221.618C250.561 221.639 250.662 221.67 250.77 221.701C250.999 220.518 251.314 219.384 251.708 218.326C251.663 219.604 251.702 220.886 251.822 222.151C252.959 222.923 254.133 223.535 255.333 223.98C256.639 224.283 259.509 230.721 259.643 230.062C259.872 228.879 260.187 227.745 260.581 226.687C260.536 227.965 260.574 229.247 260.695 230.512C260.701 230.564 260.701 230.606 260.707 230.658C261.341 229.268 261.728 227.575 261.512 228.871C263.635 220.949 262.811 215.274 259.471 208.595C258.821 207.159 257.959 206.019 256.968 205.282C255.959 204.551 254.791 204.741 253.888 205.784C251.114 201.59 247.179 200.205 243.608 202.168C240.129 204.164 237.448 205.335 236.916 211.355C233.953 210.82 231.067 213.137 229.494 217.312C227.994 221.485 227.503 226.437 228.119 231.181L228.119 231.181Z" fill="#2F2E41"/>
<path d="M188.694 451.932C187.499 447.016 188.947 441.434 191.928 439.464C192.246 439.254 192.574 439.091 192.91 438.976L197.983 378.881L206.109 390.455L199.925 447.073C200.37 452.347 198.139 457.218 194.941 457.952C192.265 458.567 189.682 456.078 188.694 451.932H188.694Z" fill="#FFB8B8"/>
<path d="M233.469 291.515L233.082 285.686C232.717 280.302 230.667 275.629 227.68 273.372C226.546 272.505 225.316 272.031 224.066 271.981H224.056C220.295 271.836 216.848 275.424 215.308 281.085L209.112 303.927L193.473 383.097L188.419 426.161L193.88 427.487L201.794 429.403L201.854 429.419L203.671 429.862L229.061 317.796L229.071 317.763L233.817 296.82L233.469 291.515H233.469Z" fill="#2F2E41"/>
</g>
<path d="M328.216 521.721H165.373C161.536 521.714 158.427 516.587 158.422 510.259V145.113C158.426 138.785 161.536 133.658 165.373 133.651H328.216C332.053 133.658 335.163 138.785 335.167 145.113V510.259C335.162 516.587 332.053 521.714 328.216 521.721ZM165.373 136.925C162.632 136.931 160.411 140.593 160.408 145.113V510.259C160.411 514.779 162.632 518.441 165.373 518.446H328.216C330.957 518.441 333.178 514.779 333.181 510.259V145.113C333.178 140.593 330.957 136.931 328.216 136.925H165.373Z" fill="#E6E6E6"/>
<path d="M65.5346 407.101H12.9083C5.77925 407.101 0 397.571 0 385.815C0 374.058 5.77925 364.528 12.9083 364.528H65.5346C72.6636 364.528 78.4429 374.058 78.4429 385.815C78.4429 397.571 72.6636 407.101 65.5346 407.101Z" fill="#E6E6E6"/>
<path d="M91.3512 490.61H38.725C31.5959 490.61 25.8167 481.08 25.8167 469.323C25.8167 457.567 31.5959 448.037 38.725 448.037H91.3512C98.4803 448.037 104.26 457.567 104.26 469.323C104.26 481.08 98.4803 490.61 91.3512 490.61Z" fill="#E6E6E6"/>
<path d="M119.187 474.994L119.159 478.269L220.856 480.691L220.884 477.416L119.187 474.994Z" fill="#E6E6E6"/>
<path d="M225.137 486.548C223.236 486.551 221.501 484.766 220.666 481.95C219.464 477.886 220.488 472.985 222.953 471.003C225.417 469.021 228.389 470.71 229.591 474.774C230.792 478.838 229.769 483.739 227.304 485.72C226.629 486.263 225.888 486.546 225.137 486.549V486.548ZM225.127 473.447C223.481 473.45 222.148 475.652 222.15 478.366C222.15 479.11 222.253 479.844 222.451 480.514C223.174 482.949 224.957 483.957 226.433 482.766C227.91 481.574 228.522 478.634 227.799 476.199C227.3 474.516 226.263 473.448 225.127 473.447H225.127Z" fill="#E6E6E6"/>
<path d="M97.3425 388.21L97.3138 391.485L199.011 393.907L199.04 390.632L97.3425 388.21Z" fill="#E6E6E6"/>
<path d="M203.292 399.765C201.391 399.767 199.656 397.982 198.821 395.167C197.618 391.102 198.641 386.198 201.106 384.214C203.571 382.23 206.545 383.917 207.748 387.982C208.951 392.048 207.928 396.951 205.463 398.935C204.787 399.479 204.044 399.763 203.292 399.765ZM200.606 393.731C201.328 396.168 203.11 397.18 204.589 395.991C206.067 394.802 206.68 391.861 205.959 389.424C205.238 386.986 203.455 385.975 201.977 387.164C201.267 387.735 200.724 388.747 200.467 389.978C200.21 391.21 200.26 392.56 200.606 393.731Z" fill="#E6E6E6"/>
<path d="M105.252 325.23H52.6262C45.4972 325.23 39.7179 315.699 39.7179 303.943C39.7179 292.187 45.4972 282.657 52.6262 282.657H105.252C112.382 282.657 118.161 292.187 118.161 303.943C118.161 315.699 112.382 325.23 105.252 325.23Z" fill="#E6E6E6"/>
<path d="M137.06 306.339L137.032 309.613L238.729 312.036L238.758 308.761L137.06 306.339Z" fill="#E6E6E6"/>
<path d="M243.01 317.893C241.109 317.896 239.374 316.111 238.539 313.295C237.336 309.23 238.359 304.327 240.824 302.343C243.289 300.359 246.263 302.046 247.466 306.111C248.669 310.176 247.646 315.08 245.181 317.064C244.505 317.608 243.762 317.891 243.01 317.893ZM240.324 311.859C241.046 314.297 242.828 315.309 244.307 314.119C245.785 312.93 246.398 309.99 245.677 307.553C244.956 305.115 243.173 304.103 241.695 305.292C240.985 305.863 240.442 306.875 240.185 308.106C239.928 309.338 239.978 310.688 240.324 311.859Z" fill="#E6E6E6"/>
<path d="M511.278 377.049L511.249 380.323L612.946 382.746L612.974 379.471L511.278 377.049Z" fill="#3F3D56"/>
<path d="M507.009 387.57C504.262 387.58 502.03 383.917 502.024 379.387C502.017 374.857 504.239 371.177 506.986 371.167C509.733 371.156 511.964 374.82 511.971 379.349C511.975 382.49 510.892 385.359 509.18 386.737C508.504 387.282 507.762 387.567 507.009 387.57V387.57ZM507.002 374.463C505.356 374.463 504.021 376.664 504.021 379.379C504.021 382.094 505.355 384.295 507.002 384.295C508.648 384.295 509.983 382.094 509.983 379.379C509.983 378.633 509.88 377.896 509.682 377.225V377.225C509.181 375.536 508.142 374.465 507.002 374.463V374.463Z" fill="#3F3D56"/>
<path d="M691.092 575.756H638.466C631.337 575.756 625.557 566.226 625.557 554.47C625.557 542.713 631.337 533.183 638.466 533.183H691.092C698.221 533.183 704 542.713 704 554.47C704 566.226 698.221 575.756 691.092 575.756Z" fill="#5C5DF2"/>
<path d="M511.278 545.704L511.249 548.979L612.946 551.401L612.974 548.127L511.278 545.704Z" fill="#3F3D56"/>
<path d="M507.008 556.224C504.266 556.228 502.04 552.566 502.038 548.043C502.035 543.52 504.256 539.85 506.999 539.846C508.899 539.843 510.634 541.628 511.467 544.445C512.668 548.514 511.641 553.418 509.173 555.398C508.498 555.939 507.759 556.222 507.008 556.224ZM507.002 543.118C505.356 543.118 504.021 545.318 504.02 548.034C504.02 550.749 505.355 552.95 507.001 552.951C508.648 552.951 509.983 550.75 509.983 548.035C509.983 547.289 509.88 546.552 509.682 545.881C509.182 544.192 508.142 543.12 507.002 543.118Z" fill="#3F3D56"/>
<path d="M376.298 575.558C378.813 572.228 379.216 566.165 377.196 562.016C377.001 561.614 376.786 561.239 376.554 560.893L386.011 515.484L379.038 508.082L368.044 562.151C366.07 566.349 366.533 572.392 369.078 575.648C371.208 578.372 374.193 578.335 376.298 575.558V575.558Z" fill="#FFB6B6"/>
<path d="M384.369 450.268C382.698 461.92 380.205 472.098 380.543 476.986C380.877 481.86 377.265 486.544 378.413 490.397C379.558 494.26 376.031 494.674 376.985 500.89C377.942 507.12 378.564 508.452 377.756 509.478C376.942 510.499 372.643 534.277 372.643 534.277L375.165 535.801L382.523 540.228L399.814 493.328L399.762 435.761L395.469 435.534C394.438 436.171 393.296 436.936 392.157 437.857C388.68 440.626 385.161 444.718 384.369 450.268Z" fill="#5C5DF2"/>
<path d="M448.042 815.542H457.034L461.312 758.348H448.04L448.042 815.542Z" fill="#FFB6B6"/>
<path d="M460.026 816.877V806.825L457.662 807.063L448.039 808.003L445.812 808.229L444.11 841.895L444.018 843.7H450.403L450.608 841.908L451.536 833.761L453.93 841.908L454.454 843.7H471.381C473.478 843.678 475.173 840.878 475.182 837.421C475.896 831.918 461.819 820.023 460.026 816.877V816.877Z" fill="#2F2E41"/>
<path d="M342.697 799.402L350.518 806.719L371.354 760.455L359.811 749.656L342.697 799.402Z" fill="#FFB6B6"/>
<path d="M352.725 810.309L355.727 801.573L353.614 799.856L344.957 792.849L342.95 791.22L333.092 815.022L330.774 820.612L333.396 823.069L336.322 825.814L340.29 818.093L339.849 829.111L353.675 842.058H353.683L354.572 842.886C356.4 844.589 358.72 843.529 359.756 840.517C362.021 836.305 353.341 814.521 352.725 810.309Z" fill="#2F2E41"/>
<path d="M403.418 534.788C391.369 547.955 379.441 674.458 382.571 672.393L354.17 759.676L368.687 775.86L421.174 637.365L438.622 698.632L445.827 792.673L463.901 790.544C459.204 684.6 447.479 572.862 437.761 529.64L403.418 534.788V534.788Z" fill="#2F2E41"/>
<path d="M394.27 544.183L394.138 544.996C406.877 556.684 441.744 543.146 441.744 543.146L436.124 513.285L443.711 446.948C443.67 436.239 438.373 427.612 431.879 427.68C431.612 427.683 431.345 427.701 431.079 427.733L421.925 416.551L408.894 417.292L400.177 433.17L394.969 436.239L390.923 438.617C390.105 439.832 389.212 441.233 388.356 442.777L394.757 505.59L397.479 524.372L394.27 544.183Z" fill="#5C5DF2"/>
<path d="M415.422 414.059C424.657 414.059 432.143 401.714 432.143 386.486C432.143 371.258 424.657 358.913 415.422 358.913C406.188 358.913 398.701 371.258 398.701 386.486C398.701 401.714 406.188 414.059 415.422 414.059Z" fill="#FFB6B6"/>
<path d="M393.437 376.88C393.487 376.912 393.53 376.943 393.58 376.974C393.675 377.043 393.773 377.102 393.873 377.15C394.511 377.536 395.176 377.788 395.852 377.9C396.14 377.951 396.43 377.976 396.72 377.975C397.091 377.977 397.463 377.938 397.831 377.856C398.241 377.773 398.646 377.637 399.043 377.45C399.232 377.366 399.417 377.267 399.599 377.153C402.116 375.679 404.067 372.344 404.871 368.145V368.134C404.913 367.932 404.949 367.726 404.978 367.517C405.164 366.358 405.258 365.164 405.258 363.966V363.945C405.263 361.022 404.71 358.17 403.678 355.793C403.056 354.339 402.338 354.096 402.741 352.433C404.027 347.127 398.765 342.79 395.658 345.123C395.546 345.105 395.434 345.098 395.321 345.101C393.229 345.092 392.454 350.186 391.207 353.054L391.243 353.073C392.079 353.556 392.52 355.066 392.227 356.446C392.063 357.218 391.692 357.821 391.222 358.081C390.392 358.527 389.553 358.921 388.706 359.263C385.91 364.707 389.115 380.633 393.437 376.88Z" fill="#2F2E41"/>
<path d="M394.975 391.478C395.771 397.376 397.677 402.707 400.422 406.709C403.251 410.48 416.556 419.411 417.68 411.765C416.928 417.106 417.381 419.147 418.59 421.057C418.796 420.595 419.015 420.153 419.241 419.721C420.071 418.143 421.068 416.825 422.182 415.831C422.211 419.057 422.07 422.281 421.761 425.467C422.259 426.225 422.733 427.024 423.181 427.862C425.333 417.286 430.049 404.618 426.635 394.987C425.279 391.165 426.409 390.642 427.61 390.203C429.705 389.437 430.861 375.255 431.36 371.808C431.978 367.485 432.223 362.513 430.599 358.964C428.974 355.415 424.866 355.264 424.035 359.493L422.305 355.614C420.07 347.5 414.135 349.123 408.77 350.172C403.329 351.531 398.645 357.229 396.252 365.401C393.948 373.561 393.495 382.814 394.975 391.478V391.478Z" fill="#2F2E41"/>
<path d="M403.434 354.417C403.667 364.418 400.257 373.683 394.77 377.959C393.68 378.773 392.731 376.108 393.828 375.287C398.734 371.556 401.788 363.31 401.561 354.41C401.498 352.423 403.372 352.437 403.434 354.418V354.417V354.417Z" fill="#5C5DF2"/>
<path d="M478.953 369.672C475.845 371.095 474.024 376.404 474.887 381.53C474.97 382.027 475.078 382.512 475.209 382.98L455.652 418.549L460.288 429.888L483.329 387.362C486.147 384.79 487.168 378.936 485.608 374.288C484.303 370.398 481.552 368.49 478.953 369.672L478.953 369.672Z" fill="#FFB6B6"/>
<path d="M423.363 485.067C423.363 485.067 437.233 489.175 441.556 479.546C445.878 469.917 450.605 462.194 451.465 457.488C452.325 452.781 456.763 450.836 456.631 446.544C456.5 442.251 459.843 444.169 460.452 437.828C461.062 431.488 460.811 429.853 461.802 429.44C462.793 429.026 472.429 409.98 472.429 409.98L464.777 398.082L437.668 429.924L423.363 485.067L423.363 485.067Z" fill="#5C5DF2"/>
<path d="M319.042 831.693C308.158 829.556 298.44 819.431 292.595 804.14C288.843 794.104 286.907 782.185 285.034 770.66C284.489 767.305 283.925 763.837 283.329 760.493C281.948 753.018 283.465 744.91 287.158 740.016C290.729 735.08 295.761 734.224 299.868 737.853L300.306 738.236L301.074 766.694C302.212 762.881 304.708 754.269 306.686 745.669L306.852 744.949L307.231 745.4C311.208 750.111 314.809 755.629 317.949 761.824C329.173 784.325 333.827 813.828 330.674 842.496L330.578 843.34L319.042 831.693H319.042Z" fill="#F2F2F2"/>
<path d="M248.672 843.052C248.67 844.125 249.196 844.997 249.847 845H538.096C538.749 845 539.278 844.128 539.278 843.052C539.278 841.975 538.749 841.103 538.096 841.103H249.854C249.203 841.1 248.674 841.967 248.672 843.04V843.052Z" fill="#CCCCCC"/>
<path d="M162.432 28.3114C167.07 28.3114 170.829 21.9737 170.829 14.1557C170.829 6.33772 167.07 0 162.432 0C157.795 0 154.035 6.33772 154.035 14.1557C154.035 21.9737 157.795 28.3114 162.432 28.3114Z" fill="#3F3D56"/>
<path d="M191.44 28.3114C196.077 28.3114 199.837 21.9737 199.837 14.1557C199.837 6.33772 196.077 0 191.44 0C186.802 0 183.043 6.33772 183.043 14.1557C183.043 21.9737 186.802 28.3114 191.44 28.3114Z" fill="#3F3D56"/>
<path d="M220.448 28.3114C225.085 28.3114 228.844 21.9737 228.844 14.1557C228.844 6.33772 225.085 0 220.448 0C215.81 0 212.051 6.33772 212.051 14.1557C212.051 21.9737 215.81 28.3114 220.448 28.3114Z" fill="#3F3D56"/>
<path d="M253.524 25.3439C253.266 25.3439 253.009 25.1792 252.814 24.8514L247.148 15.3003C246.771 14.6639 246.771 13.6468 247.148 13.0104L252.814 3.46009C253.199 2.81407 253.828 2.80367 254.218 3.43451C254.611 4.06693 254.617 5.10392 254.234 5.74993L249.247 14.1553L254.234 22.5616C254.617 23.2076 254.611 24.2446 254.218 24.877C254.025 25.1888 253.775 25.3439 253.524 25.3439Z" fill="#3F3D56"/>
<path d="M263.045 25.3439C262.794 25.3439 262.544 25.1888 262.351 24.877C261.958 24.2445 261.952 23.2084 262.335 22.5615L267.321 14.1553L262.335 5.74991C261.952 5.1039 261.958 4.06691 262.351 3.43449C262.742 2.80126 263.371 2.81326 263.755 3.46007L269.42 13.0104C269.798 13.6468 269.798 14.6638 269.42 15.3003L263.755 24.8514C263.56 25.1792 263.303 25.3439 263.045 25.3439Z" fill="#3F3D56"/>
<path d="M559.449 1.63892H548.914C547.713 1.63892 546.74 3.24356 546.74 5.22489V22.6144C546.74 24.5957 547.713 26.2004 548.914 26.2004H559.449C560.651 26.2004 561.634 24.5957 561.634 22.6144V5.22489C561.634 3.24356 560.651 1.63892 559.449 1.63892Z" fill="#3F3D56"/>
<path d="M533.633 1.63892H523.098C521.896 1.63892 520.923 3.24356 520.923 5.22489V22.6144C520.923 24.5957 521.896 26.2004 523.098 26.2004H533.633C534.834 26.2004 535.817 24.5957 535.817 22.6144V5.22489C535.817 3.24356 534.834 1.63892 533.633 1.63892Z" fill="#3F3D56"/>
<path d="M583.777 2.45764H573.242C572.04 2.45764 571.067 4.06229 571.067 6.04361V23.4331C571.067 25.4144 572.04 27.0191 573.242 27.0191H583.777C584.978 27.0191 585.961 25.4144 585.961 23.4331V6.04361C585.961 4.06229 584.978 2.45764 583.777 2.45764Z" fill="#3F3D56"/>
<path d="M424.983 9.07275H340.771C339.301 9.07275 338.12 11.0377 338.12 13.4448C338.12 15.8518 339.301 17.8167 340.771 17.8167H424.983C426.442 17.8167 427.634 15.8517 427.634 13.4448C427.634 11.0378 426.442 9.07275 424.983 9.07275Z" fill="#3F3D56"/>
</g>
<defs>
<clipPath id="clip0_10_20">
<rect width="704" height="845" fill="white"/>
</clipPath>
</defs>
</svg>
